<mxfile host="Electron" modified="2023-11-22T16:16:44.701Z" agent="Mozilla/5.0 (Windows NT 10.0; Win64; x64) AppleWebKit/537.36 (KHTML, like Gecko) draw.io/22.1.2 Chrome/114.0.5735.289 Electron/25.9.4 Safari/537.36" etag="qaqqZQdTyJFw9XvRyHme" version="22.1.2" type="device">
  <diagram id="C5RBs43oDa-KdzZeNtuy" name="Page-1">
    <mxGraphModel dx="2927" dy="2210" grid="0" gridSize="10" guides="1" tooltips="1" connect="1" arrows="1" fold="1" page="0" pageScale="1" pageWidth="827" pageHeight="1169" math="0" shadow="0">
      <root>
        <mxCell id="WIyWlLk6GJQsqaUBKTNV-0" />
        <mxCell id="WIyWlLk6GJQsqaUBKTNV-1" parent="WIyWlLk6GJQsqaUBKTNV-0" />
        <mxCell id="brUXXa_R-ptbCNzifq8O-45" style="edgeStyle=orthogonalEdgeStyle;rounded=0;orthogonalLoop=1;jettySize=auto;html=1;exitX=0.25;exitY=0;exitDx=0;exitDy=0;" parent="WIyWlLk6GJQsqaUBKTNV-1" source="qo8mv6PclGXcHzkk8HT5-20" target="tI3xh8Z578h0PM8hBI4w-48" edge="1">
          <mxGeometry relative="1" as="geometry" />
        </mxCell>
        <mxCell id="qo8mv6PclGXcHzkk8HT5-20" value="Course" style="swimlane;fontStyle=0;childLayout=stackLayout;horizontal=1;startSize=26;fillColor=none;horizontalStack=0;resizeParent=1;resizeParentMax=0;resizeLast=0;collapsible=1;marginBottom=0;whiteSpace=wrap;html=1;" parent="WIyWlLk6GJQsqaUBKTNV-1" vertex="1">
          <mxGeometry x="-420" y="-563" width="190" height="272" as="geometry" />
        </mxCell>
        <mxCell id="qo8mv6PclGXcHzkk8HT5-21" value="- courseID: int" style="text;strokeColor=none;fillColor=none;align=left;verticalAlign=top;spacingLeft=4;spacingRight=4;overflow=hidden;rotatable=0;points=[[0,0.5],[1,0.5]];portConstraint=eastwest;whiteSpace=wrap;html=1;" parent="qo8mv6PclGXcHzkk8HT5-20" vertex="1">
          <mxGeometry y="26" width="190" height="24" as="geometry" />
        </mxCell>
        <mxCell id="qo8mv6PclGXcHzkk8HT5-22" value="- courseName: string" style="text;strokeColor=none;fillColor=none;align=left;verticalAlign=top;spacingLeft=4;spacingRight=4;overflow=hidden;rotatable=0;points=[[0,0.5],[1,0.5]];portConstraint=eastwest;whiteSpace=wrap;html=1;" parent="qo8mv6PclGXcHzkk8HT5-20" vertex="1">
          <mxGeometry y="50" width="190" height="26" as="geometry" />
        </mxCell>
        <mxCell id="tI3xh8Z578h0PM8hBI4w-66" value="-description:String" style="text;strokeColor=none;fillColor=none;align=left;verticalAlign=top;spacingLeft=4;spacingRight=4;overflow=hidden;rotatable=0;points=[[0,0.5],[1,0.5]];portConstraint=eastwest;whiteSpace=wrap;html=1;" parent="qo8mv6PclGXcHzkk8HT5-20" vertex="1">
          <mxGeometry y="76" width="190" height="26" as="geometry" />
        </mxCell>
        <mxCell id="qo8mv6PclGXcHzkk8HT5-23" value="- startDate: Date  " style="text;strokeColor=none;fillColor=none;align=left;verticalAlign=top;spacingLeft=4;spacingRight=4;overflow=hidden;rotatable=0;points=[[0,0.5],[1,0.5]];portConstraint=eastwest;whiteSpace=wrap;html=1;" parent="qo8mv6PclGXcHzkk8HT5-20" vertex="1">
          <mxGeometry y="102" width="190" height="24" as="geometry" />
        </mxCell>
        <mxCell id="qo8mv6PclGXcHzkk8HT5-24" value="- endDate: Date " style="text;strokeColor=none;fillColor=none;align=left;verticalAlign=top;spacingLeft=4;spacingRight=4;overflow=hidden;rotatable=0;points=[[0,0.5],[1,0.5]];portConstraint=eastwest;whiteSpace=wrap;html=1;" parent="qo8mv6PclGXcHzkk8HT5-20" vertex="1">
          <mxGeometry y="126" width="190" height="30" as="geometry" />
        </mxCell>
        <mxCell id="tI3xh8Z578h0PM8hBI4w-65" value="-price:Double" style="text;strokeColor=none;fillColor=none;align=left;verticalAlign=top;spacingLeft=4;spacingRight=4;overflow=hidden;rotatable=0;points=[[0,0.5],[1,0.5]];portConstraint=eastwest;whiteSpace=wrap;html=1;" parent="qo8mv6PclGXcHzkk8HT5-20" vertex="1">
          <mxGeometry y="156" width="190" height="26" as="geometry" />
        </mxCell>
        <mxCell id="tI3xh8Z578h0PM8hBI4w-61" value="-Instructor Name:String" style="text;strokeColor=none;fillColor=none;align=left;verticalAlign=top;spacingLeft=4;spacingRight=4;overflow=hidden;rotatable=0;points=[[0,0.5],[1,0.5]];portConstraint=eastwest;whiteSpace=wrap;html=1;" parent="qo8mv6PclGXcHzkk8HT5-20" vertex="1">
          <mxGeometry y="182" width="190" height="30" as="geometry" />
        </mxCell>
        <mxCell id="tI3xh8Z578h0PM8hBI4w-69" value="" style="line;strokeWidth=1;fillColor=none;align=left;verticalAlign=middle;spacingTop=-1;spacingLeft=3;spacingRight=3;rotatable=0;labelPosition=right;points=[];portConstraint=eastwest;strokeColor=inherit;" parent="qo8mv6PclGXcHzkk8HT5-20" vertex="1">
          <mxGeometry y="212" width="190" height="8" as="geometry" />
        </mxCell>
        <mxCell id="tI3xh8Z578h0PM8hBI4w-67" value="+get Details:()" style="text;strokeColor=none;fillColor=none;align=left;verticalAlign=top;spacingLeft=4;spacingRight=4;overflow=hidden;rotatable=0;points=[[0,0.5],[1,0.5]];portConstraint=eastwest;whiteSpace=wrap;html=1;" parent="qo8mv6PclGXcHzkk8HT5-20" vertex="1">
          <mxGeometry y="220" width="190" height="26" as="geometry" />
        </mxCell>
        <mxCell id="tI3xh8Z578h0PM8hBI4w-68" value="+Add Course:()" style="text;strokeColor=none;fillColor=none;align=left;verticalAlign=top;spacingLeft=4;spacingRight=4;overflow=hidden;rotatable=0;points=[[0,0.5],[1,0.5]];portConstraint=eastwest;whiteSpace=wrap;html=1;" parent="qo8mv6PclGXcHzkk8HT5-20" vertex="1">
          <mxGeometry y="246" width="190" height="26" as="geometry" />
        </mxCell>
        <mxCell id="qo8mv6PclGXcHzkk8HT5-25" value="Lesson" style="swimlane;fontStyle=0;childLayout=stackLayout;horizontal=1;startSize=26;fillColor=none;horizontalStack=0;resizeParent=1;resizeParentMax=0;resizeLast=0;collapsible=1;marginBottom=0;whiteSpace=wrap;html=1;" parent="WIyWlLk6GJQsqaUBKTNV-1" vertex="1">
          <mxGeometry x="-719" y="-486" width="193" height="210" as="geometry" />
        </mxCell>
        <mxCell id="qo8mv6PclGXcHzkk8HT5-26" value="- lessonID: int" style="text;strokeColor=none;fillColor=none;align=left;verticalAlign=top;spacingLeft=4;spacingRight=4;overflow=hidden;rotatable=0;points=[[0,0.5],[1,0.5]];portConstraint=eastwest;whiteSpace=wrap;html=1;" parent="qo8mv6PclGXcHzkk8HT5-25" vertex="1">
          <mxGeometry y="26" width="193" height="26" as="geometry" />
        </mxCell>
        <mxCell id="qo8mv6PclGXcHzkk8HT5-27" value="- lessonTitle: string" style="text;strokeColor=none;fillColor=none;align=left;verticalAlign=top;spacingLeft=4;spacingRight=4;overflow=hidden;rotatable=0;points=[[0,0.5],[1,0.5]];portConstraint=eastwest;whiteSpace=wrap;html=1;" parent="qo8mv6PclGXcHzkk8HT5-25" vertex="1">
          <mxGeometry y="52" width="193" height="26" as="geometry" />
        </mxCell>
        <mxCell id="qo8mv6PclGXcHzkk8HT5-34" value="- content: string" style="text;strokeColor=none;fillColor=none;align=left;verticalAlign=top;spacingLeft=4;spacingRight=4;overflow=hidden;rotatable=0;points=[[0,0.5],[1,0.5]];portConstraint=eastwest;whiteSpace=wrap;html=1;" parent="qo8mv6PclGXcHzkk8HT5-25" vertex="1">
          <mxGeometry y="78" width="193" height="26" as="geometry" />
        </mxCell>
        <mxCell id="qo8mv6PclGXcHzkk8HT5-35" value="- materials: List&amp;lt;Material&amp;gt;" style="text;strokeColor=none;fillColor=none;align=left;verticalAlign=top;spacingLeft=4;spacingRight=4;overflow=hidden;rotatable=0;points=[[0,0.5],[1,0.5]];portConstraint=eastwest;whiteSpace=wrap;html=1;" parent="qo8mv6PclGXcHzkk8HT5-25" vertex="1">
          <mxGeometry y="104" width="193" height="26" as="geometry" />
        </mxCell>
        <mxCell id="0-J2Bm-WV9Q-Gzg6j7fX-16" value="- Assignments: list&amp;lt;Assignmetn&amp;gt;" style="text;strokeColor=none;fillColor=none;align=left;verticalAlign=top;spacingLeft=4;spacingRight=4;overflow=hidden;rotatable=0;points=[[0,0.5],[1,0.5]];portConstraint=eastwest;whiteSpace=wrap;html=1;" parent="qo8mv6PclGXcHzkk8HT5-25" vertex="1">
          <mxGeometry y="130" width="193" height="26" as="geometry" />
        </mxCell>
        <mxCell id="0-J2Bm-WV9Q-Gzg6j7fX-19" value="-Exams:List&amp;lt;Exams&amp;gt;" style="text;strokeColor=none;fillColor=none;align=left;verticalAlign=top;spacingLeft=4;spacingRight=4;overflow=hidden;rotatable=0;points=[[0,0.5],[1,0.5]];portConstraint=eastwest;whiteSpace=wrap;html=1;" parent="qo8mv6PclGXcHzkk8HT5-25" vertex="1">
          <mxGeometry y="156" width="193" height="28" as="geometry" />
        </mxCell>
        <mxCell id="0-J2Bm-WV9Q-Gzg6j7fX-24" value="-Sessions;List&amp;lt;Session&amp;gt;" style="text;strokeColor=none;fillColor=none;align=left;verticalAlign=top;spacingLeft=4;spacingRight=4;overflow=hidden;rotatable=0;points=[[0,0.5],[1,0.5]];portConstraint=eastwest;whiteSpace=wrap;html=1;" parent="qo8mv6PclGXcHzkk8HT5-25" vertex="1">
          <mxGeometry y="184" width="193" height="26" as="geometry" />
        </mxCell>
        <mxCell id="tI3xh8Z578h0PM8hBI4w-0" value="user" style="swimlane;fontStyle=0;childLayout=stackLayout;horizontal=1;startSize=26;fillColor=none;horizontalStack=0;resizeParent=1;resizeParentMax=0;resizeLast=0;collapsible=1;marginBottom=0;whiteSpace=wrap;html=1;" parent="WIyWlLk6GJQsqaUBKTNV-1" vertex="1">
          <mxGeometry x="-411" y="-1177" width="230" height="268" as="geometry" />
        </mxCell>
        <mxCell id="tI3xh8Z578h0PM8hBI4w-1" value="-userId:int" style="text;strokeColor=none;fillColor=none;align=left;verticalAlign=top;spacingLeft=4;spacingRight=4;overflow=hidden;rotatable=0;points=[[0,0.5],[1,0.5]];portConstraint=eastwest;whiteSpace=wrap;html=1;" parent="tI3xh8Z578h0PM8hBI4w-0" vertex="1">
          <mxGeometry y="26" width="230" height="26" as="geometry" />
        </mxCell>
        <mxCell id="tI3xh8Z578h0PM8hBI4w-2" value="-UserName:String" style="text;strokeColor=none;fillColor=none;align=left;verticalAlign=top;spacingLeft=4;spacingRight=4;overflow=hidden;rotatable=0;points=[[0,0.5],[1,0.5]];portConstraint=eastwest;whiteSpace=wrap;html=1;" parent="tI3xh8Z578h0PM8hBI4w-0" vertex="1">
          <mxGeometry y="52" width="230" height="26" as="geometry" />
        </mxCell>
        <mxCell id="tI3xh8Z578h0PM8hBI4w-3" value="-Email:string&lt;br&gt;" style="text;strokeColor=none;fillColor=none;align=left;verticalAlign=top;spacingLeft=4;spacingRight=4;overflow=hidden;rotatable=0;points=[[0,0.5],[1,0.5]];portConstraint=eastwest;whiteSpace=wrap;html=1;" parent="tI3xh8Z578h0PM8hBI4w-0" vertex="1">
          <mxGeometry y="78" width="230" height="26" as="geometry" />
        </mxCell>
        <mxCell id="tI3xh8Z578h0PM8hBI4w-4" value="-Password:string" style="text;strokeColor=none;fillColor=none;align=left;verticalAlign=top;spacingLeft=4;spacingRight=4;overflow=hidden;rotatable=0;points=[[0,0.5],[1,0.5]];portConstraint=eastwest;whiteSpace=wrap;html=1;" parent="tI3xh8Z578h0PM8hBI4w-0" vertex="1">
          <mxGeometry y="104" width="230" height="26" as="geometry" />
        </mxCell>
        <mxCell id="tI3xh8Z578h0PM8hBI4w-41" value="-Usertype:String" style="text;strokeColor=none;fillColor=none;align=left;verticalAlign=top;spacingLeft=4;spacingRight=4;overflow=hidden;rotatable=0;points=[[0,0.5],[1,0.5]];portConstraint=eastwest;whiteSpace=wrap;html=1;" parent="tI3xh8Z578h0PM8hBI4w-0" vertex="1">
          <mxGeometry y="130" width="230" height="26" as="geometry" />
        </mxCell>
        <mxCell id="tI3xh8Z578h0PM8hBI4w-10" value="" style="line;strokeWidth=1;fillColor=none;align=left;verticalAlign=middle;spacingTop=-1;spacingLeft=3;spacingRight=3;rotatable=0;labelPosition=right;points=[];portConstraint=eastwest;strokeColor=inherit;" parent="tI3xh8Z578h0PM8hBI4w-0" vertex="1">
          <mxGeometry y="156" width="230" height="8" as="geometry" />
        </mxCell>
        <mxCell id="tI3xh8Z578h0PM8hBI4w-6" value="+Reset Password():" style="text;strokeColor=none;fillColor=none;align=left;verticalAlign=top;spacingLeft=4;spacingRight=4;overflow=hidden;rotatable=0;points=[[0,0.5],[1,0.5]];portConstraint=eastwest;whiteSpace=wrap;html=1;" parent="tI3xh8Z578h0PM8hBI4w-0" vertex="1">
          <mxGeometry y="164" width="230" height="26" as="geometry" />
        </mxCell>
        <mxCell id="tI3xh8Z578h0PM8hBI4w-7" value="+view Profile()" style="text;strokeColor=none;fillColor=none;align=left;verticalAlign=top;spacingLeft=4;spacingRight=4;overflow=hidden;rotatable=0;points=[[0,0.5],[1,0.5]];portConstraint=eastwest;whiteSpace=wrap;html=1;" parent="tI3xh8Z578h0PM8hBI4w-0" vertex="1">
          <mxGeometry y="190" width="230" height="26" as="geometry" />
        </mxCell>
        <mxCell id="tI3xh8Z578h0PM8hBI4w-15" value="+login()" style="text;strokeColor=none;fillColor=none;align=left;verticalAlign=top;spacingLeft=4;spacingRight=4;overflow=hidden;rotatable=0;points=[[0,0.5],[1,0.5]];portConstraint=eastwest;whiteSpace=wrap;html=1;" parent="tI3xh8Z578h0PM8hBI4w-0" vertex="1">
          <mxGeometry y="216" width="230" height="26" as="geometry" />
        </mxCell>
        <mxCell id="tI3xh8Z578h0PM8hBI4w-16" value="+register()" style="text;strokeColor=none;fillColor=none;align=left;verticalAlign=top;spacingLeft=4;spacingRight=4;overflow=hidden;rotatable=0;points=[[0,0.5],[1,0.5]];portConstraint=eastwest;whiteSpace=wrap;html=1;" parent="tI3xh8Z578h0PM8hBI4w-0" vertex="1">
          <mxGeometry y="242" width="230" height="26" as="geometry" />
        </mxCell>
        <mxCell id="tI3xh8Z578h0PM8hBI4w-17" value="UserProfile" style="swimlane;fontStyle=0;childLayout=stackLayout;horizontal=1;startSize=26;fillColor=none;horizontalStack=0;resizeParent=1;resizeParentMax=0;resizeLast=0;collapsible=1;marginBottom=0;whiteSpace=wrap;html=1;" parent="WIyWlLk6GJQsqaUBKTNV-1" vertex="1">
          <mxGeometry x="-678" y="-1174" width="140" height="164" as="geometry" />
        </mxCell>
        <mxCell id="tI3xh8Z578h0PM8hBI4w-18" value="-UserID:Int" style="text;strokeColor=none;fillColor=none;align=left;verticalAlign=top;spacingLeft=4;spacingRight=4;overflow=hidden;rotatable=0;points=[[0,0.5],[1,0.5]];portConstraint=eastwest;whiteSpace=wrap;html=1;" parent="tI3xh8Z578h0PM8hBI4w-17" vertex="1">
          <mxGeometry y="26" width="140" height="26" as="geometry" />
        </mxCell>
        <mxCell id="tI3xh8Z578h0PM8hBI4w-19" value="-UserName:String" style="text;strokeColor=none;fillColor=none;align=left;verticalAlign=top;spacingLeft=4;spacingRight=4;overflow=hidden;rotatable=0;points=[[0,0.5],[1,0.5]];portConstraint=eastwest;whiteSpace=wrap;html=1;" parent="tI3xh8Z578h0PM8hBI4w-17" vertex="1">
          <mxGeometry y="52" width="140" height="26" as="geometry" />
        </mxCell>
        <mxCell id="tI3xh8Z578h0PM8hBI4w-21" value="-Student Level:string" style="text;strokeColor=none;fillColor=none;align=left;verticalAlign=top;spacingLeft=4;spacingRight=4;overflow=hidden;rotatable=0;points=[[0,0.5],[1,0.5]];portConstraint=eastwest;whiteSpace=wrap;html=1;" parent="tI3xh8Z578h0PM8hBI4w-17" vertex="1">
          <mxGeometry y="78" width="140" height="26" as="geometry" />
        </mxCell>
        <mxCell id="tI3xh8Z578h0PM8hBI4w-20" value="-Email:string" style="text;strokeColor=none;fillColor=none;align=left;verticalAlign=top;spacingLeft=4;spacingRight=4;overflow=hidden;rotatable=0;points=[[0,0.5],[1,0.5]];portConstraint=eastwest;whiteSpace=wrap;html=1;" parent="tI3xh8Z578h0PM8hBI4w-17" vertex="1">
          <mxGeometry y="104" width="140" height="26" as="geometry" />
        </mxCell>
        <mxCell id="tI3xh8Z578h0PM8hBI4w-120" value="" style="line;strokeWidth=1;fillColor=none;align=left;verticalAlign=middle;spacingTop=-1;spacingLeft=3;spacingRight=3;rotatable=0;labelPosition=right;points=[];portConstraint=eastwest;strokeColor=inherit;" parent="tI3xh8Z578h0PM8hBI4w-17" vertex="1">
          <mxGeometry y="130" width="140" height="8" as="geometry" />
        </mxCell>
        <mxCell id="tI3xh8Z578h0PM8hBI4w-119" value="+Update Profile()" style="text;strokeColor=none;fillColor=none;align=left;verticalAlign=top;spacingLeft=4;spacingRight=4;overflow=hidden;rotatable=0;points=[[0,0.5],[1,0.5]];portConstraint=eastwest;whiteSpace=wrap;html=1;" parent="tI3xh8Z578h0PM8hBI4w-17" vertex="1">
          <mxGeometry y="138" width="140" height="26" as="geometry" />
        </mxCell>
        <mxCell id="brUXXa_R-ptbCNzifq8O-72" style="edgeStyle=orthogonalEdgeStyle;rounded=0;orthogonalLoop=1;jettySize=auto;html=1;exitX=0.75;exitY=0;exitDx=0;exitDy=0;" parent="WIyWlLk6GJQsqaUBKTNV-1" source="tI3xh8Z578h0PM8hBI4w-30" edge="1">
          <mxGeometry relative="1" as="geometry">
            <mxPoint x="-460.1304347826085" y="-626.3043451723845" as="targetPoint" />
            <Array as="points">
              <mxPoint x="-460" y="-166" />
            </Array>
          </mxGeometry>
        </mxCell>
        <mxCell id="tI3xh8Z578h0PM8hBI4w-30" value="Exam" style="swimlane;fontStyle=0;childLayout=stackLayout;horizontal=1;startSize=26;fillColor=none;horizontalStack=0;resizeParent=1;resizeParentMax=0;resizeLast=0;collapsible=1;marginBottom=0;whiteSpace=wrap;html=1;" parent="WIyWlLk6GJQsqaUBKTNV-1" vertex="1">
          <mxGeometry x="-603" y="-166" width="170" height="232" as="geometry" />
        </mxCell>
        <mxCell id="tI3xh8Z578h0PM8hBI4w-31" value="-Exams:List&amp;lt;Exam&amp;gt;" style="text;strokeColor=none;fillColor=none;align=left;verticalAlign=top;spacingLeft=4;spacingRight=4;overflow=hidden;rotatable=0;points=[[0,0.5],[1,0.5]];portConstraint=eastwest;whiteSpace=wrap;html=1;" parent="tI3xh8Z578h0PM8hBI4w-30" vertex="1">
          <mxGeometry y="26" width="170" height="26" as="geometry" />
        </mxCell>
        <mxCell id="tI3xh8Z578h0PM8hBI4w-35" value="-Exam Duration:DateTime" style="text;strokeColor=none;fillColor=none;align=left;verticalAlign=top;spacingLeft=4;spacingRight=4;overflow=hidden;rotatable=0;points=[[0,0.5],[1,0.5]];portConstraint=eastwest;whiteSpace=wrap;html=1;" parent="tI3xh8Z578h0PM8hBI4w-30" vertex="1">
          <mxGeometry y="52" width="170" height="26" as="geometry" />
        </mxCell>
        <mxCell id="tI3xh8Z578h0PM8hBI4w-34" value="-Exam Questions number :int" style="text;strokeColor=none;fillColor=none;align=left;verticalAlign=top;spacingLeft=4;spacingRight=4;overflow=hidden;rotatable=0;points=[[0,0.5],[1,0.5]];portConstraint=eastwest;whiteSpace=wrap;html=1;" parent="tI3xh8Z578h0PM8hBI4w-30" vertex="1">
          <mxGeometry y="78" width="170" height="26" as="geometry" />
        </mxCell>
        <mxCell id="tI3xh8Z578h0PM8hBI4w-38" value="" style="line;strokeWidth=1;fillColor=none;align=left;verticalAlign=middle;spacingTop=-1;spacingLeft=3;spacingRight=3;rotatable=0;labelPosition=right;points=[];portConstraint=eastwest;strokeColor=inherit;" parent="tI3xh8Z578h0PM8hBI4w-30" vertex="1">
          <mxGeometry y="104" width="170" height="8" as="geometry" />
        </mxCell>
        <mxCell id="tI3xh8Z578h0PM8hBI4w-32" value="+OrganizeExams(course)" style="text;strokeColor=none;fillColor=none;align=left;verticalAlign=top;spacingLeft=4;spacingRight=4;overflow=hidden;rotatable=0;points=[[0,0.5],[1,0.5]];portConstraint=eastwest;whiteSpace=wrap;html=1;" parent="tI3xh8Z578h0PM8hBI4w-30" vertex="1">
          <mxGeometry y="112" width="170" height="26" as="geometry" />
        </mxCell>
        <mxCell id="tI3xh8Z578h0PM8hBI4w-33" value="+ ExamGrade(Exam,Student&lt;br&gt;,grade,Instructor)" style="text;strokeColor=none;fillColor=none;align=left;verticalAlign=top;spacingLeft=4;spacingRight=4;overflow=hidden;rotatable=0;points=[[0,0.5],[1,0.5]];portConstraint=eastwest;whiteSpace=wrap;html=1;" parent="tI3xh8Z578h0PM8hBI4w-30" vertex="1">
          <mxGeometry y="138" width="170" height="42" as="geometry" />
        </mxCell>
        <mxCell id="tI3xh8Z578h0PM8hBI4w-36" value="+Submit Answers" style="text;strokeColor=none;fillColor=none;align=left;verticalAlign=top;spacingLeft=4;spacingRight=4;overflow=hidden;rotatable=0;points=[[0,0.5],[1,0.5]];portConstraint=eastwest;whiteSpace=wrap;html=1;" parent="tI3xh8Z578h0PM8hBI4w-30" vertex="1">
          <mxGeometry y="180" width="170" height="26" as="geometry" />
        </mxCell>
        <mxCell id="tI3xh8Z578h0PM8hBI4w-37" value="+Show Results" style="text;strokeColor=none;fillColor=none;align=left;verticalAlign=top;spacingLeft=4;spacingRight=4;overflow=hidden;rotatable=0;points=[[0,0.5],[1,0.5]];portConstraint=eastwest;whiteSpace=wrap;html=1;" parent="tI3xh8Z578h0PM8hBI4w-30" vertex="1">
          <mxGeometry y="206" width="170" height="26" as="geometry" />
        </mxCell>
        <mxCell id="tI3xh8Z578h0PM8hBI4w-39" value="&lt;p style=&quot;margin:0px;margin-top:4px;text-align:center;&quot;&gt;&lt;i&gt;Payment&lt;/i&gt;&lt;/p&gt;&lt;hr size=&quot;1&quot;&gt;&lt;p style=&quot;margin:0px;margin-left:4px;&quot;&gt;&lt;span style=&quot;background-color: initial;&quot;&gt;-PaymentID:Int&lt;/span&gt;&lt;/p&gt;&lt;p style=&quot;margin:0px;margin-left:4px;&quot;&gt;&lt;span style=&quot;background-color: initial;&quot;&gt;-payment Date:Date&lt;/span&gt;&lt;/p&gt;&lt;p style=&quot;margin:0px;margin-left:4px;&quot;&gt;&lt;span style=&quot;background-color: initial;&quot;&gt;-PaymentMethod:String&lt;/span&gt;&lt;/p&gt;&lt;p style=&quot;margin:0px;margin-left:4px;&quot;&gt;-RefundID:Int&lt;/p&gt;&lt;p style=&quot;margin:0px;margin-left:4px;&quot;&gt;&lt;span style=&quot;background-color: initial;&quot;&gt;-Refund Date:Date&lt;/span&gt;&lt;/p&gt;&lt;hr size=&quot;1&quot;&gt;&lt;p style=&quot;margin:0px;margin-left:4px;&quot;&gt;+make Payment()&lt;/p&gt;&lt;p style=&quot;margin:0px;margin-left:4px;&quot;&gt;+Cancel payment()&lt;/p&gt;&lt;p style=&quot;margin:0px;margin-left:4px;&quot;&gt;+make Refund&lt;span style=&quot;background-color: initial;&quot;&gt;()&lt;/span&gt;&lt;/p&gt;&lt;p style=&quot;margin:0px;margin-left:4px;&quot;&gt;&lt;span style=&quot;background-color: initial;&quot;&gt;+Generate Receipt()&lt;/span&gt;&lt;/p&gt;" style="verticalAlign=top;align=left;overflow=fill;fontSize=12;fontFamily=Helvetica;html=1;whiteSpace=wrap;" parent="WIyWlLk6GJQsqaUBKTNV-1" vertex="1">
          <mxGeometry x="-14" y="-984" width="190" height="187" as="geometry" />
        </mxCell>
        <mxCell id="0-J2Bm-WV9Q-Gzg6j7fX-1" style="edgeStyle=orthogonalEdgeStyle;rounded=0;orthogonalLoop=1;jettySize=auto;html=1;entryX=0.5;entryY=1;entryDx=0;entryDy=0;" parent="WIyWlLk6GJQsqaUBKTNV-1" source="tI3xh8Z578h0PM8hBI4w-42" target="tI3xh8Z578h0PM8hBI4w-39" edge="1">
          <mxGeometry relative="1" as="geometry" />
        </mxCell>
        <mxCell id="tI3xh8Z578h0PM8hBI4w-42" value="&lt;p style=&quot;margin:0px;margin-top:4px;text-align:center;&quot;&gt;&lt;i&gt;Student&lt;/i&gt;&lt;/p&gt;&lt;hr size=&quot;1&quot;&gt;&lt;p style=&quot;margin:0px;margin-left:4px;&quot;&gt;-level:string&lt;br&gt;-Enrollment:List&amp;lt;Course&amp;gt;&lt;/p&gt;&lt;hr size=&quot;1&quot;&gt;&lt;p style=&quot;margin:0px;margin-left:4px;&quot;&gt;+Enroll In course(user,course)&lt;br&gt;+Leave Course(User,Course)&lt;/p&gt;" style="verticalAlign=top;align=left;overflow=fill;fontSize=12;fontFamily=Helvetica;html=1;whiteSpace=wrap;" parent="WIyWlLk6GJQsqaUBKTNV-1" vertex="1">
          <mxGeometry x="-233" y="-738" width="190" height="110" as="geometry" />
        </mxCell>
        <mxCell id="0-J2Bm-WV9Q-Gzg6j7fX-7" style="edgeStyle=orthogonalEdgeStyle;rounded=0;orthogonalLoop=1;jettySize=auto;html=1;entryX=0;entryY=0.5;entryDx=0;entryDy=0;" parent="WIyWlLk6GJQsqaUBKTNV-1" source="tI3xh8Z578h0PM8hBI4w-48" target="tI3xh8Z578h0PM8hBI4w-116" edge="1">
          <mxGeometry relative="1" as="geometry">
            <Array as="points">
              <mxPoint x="-338" y="-594" />
              <mxPoint x="-29" y="-594" />
              <mxPoint x="-29" y="-312" />
            </Array>
          </mxGeometry>
        </mxCell>
        <mxCell id="tI3xh8Z578h0PM8hBI4w-48" value="&lt;p style=&quot;margin:0px;margin-top:4px;text-align:center;&quot;&gt;&lt;i&gt;Instructor&lt;/i&gt;&lt;/p&gt;&lt;hr size=&quot;1&quot;&gt;&lt;p style=&quot;margin:0px;margin-left:4px;&quot;&gt;-Qualifications:List&amp;lt;Course&amp;gt;&lt;br&gt;-TaughtCourses:List&amp;lt;Course&amp;gt;&lt;/p&gt;&lt;hr size=&quot;1&quot;&gt;&lt;p style=&quot;margin:0px;margin-left:4px;&quot;&gt;+Get Course Revenue(course)&lt;/p&gt;&lt;p style=&quot;border-color: var(--border-color); margin: 0px 0px 0px 4px;&quot;&gt;+add qualification(&lt;span style=&quot;background-color: initial;&quot;&gt;):string&lt;/span&gt;&lt;/p&gt;" style="verticalAlign=top;align=left;overflow=fill;fontSize=12;fontFamily=Helvetica;html=1;whiteSpace=wrap;" parent="WIyWlLk6GJQsqaUBKTNV-1" vertex="1">
          <mxGeometry x="-505" y="-742" width="190" height="110" as="geometry" />
        </mxCell>
        <mxCell id="0-J2Bm-WV9Q-Gzg6j7fX-9" style="edgeStyle=orthogonalEdgeStyle;rounded=0;orthogonalLoop=1;jettySize=auto;html=1;entryX=1;entryY=0.75;entryDx=0;entryDy=0;" parent="WIyWlLk6GJQsqaUBKTNV-1" source="tI3xh8Z578h0PM8hBI4w-50" target="tI3xh8Z578h0PM8hBI4w-126" edge="1">
          <mxGeometry relative="1" as="geometry">
            <Array as="points">
              <mxPoint x="-580" y="-591" />
            </Array>
          </mxGeometry>
        </mxCell>
        <mxCell id="tI3xh8Z578h0PM8hBI4w-50" value="&lt;p style=&quot;margin:0px;margin-top:4px;text-align:center;&quot;&gt;&lt;i&gt;Adminstrator&lt;/i&gt;&lt;/p&gt;&lt;hr size=&quot;1&quot;&gt;&lt;p style=&quot;margin:0px;margin-left:4px;&quot;&gt;- adminID: int&lt;br&gt;- username: string&lt;br&gt;&lt;/p&gt;&lt;p style=&quot;margin:0px;margin-left:4px;&quot;&gt;- password: string&lt;br&gt;&lt;/p&gt;&lt;hr size=&quot;1&quot;&gt;&lt;p style=&quot;margin:0px;margin-left:4px;&quot;&gt;+verifyQualifications(instructorID: int): boolean&lt;br&gt;&lt;/p&gt;" style="verticalAlign=top;align=left;overflow=fill;fontSize=12;fontFamily=Helvetica;html=1;whiteSpace=wrap;" parent="WIyWlLk6GJQsqaUBKTNV-1" vertex="1">
          <mxGeometry x="-628" y="-976" width="190" height="130" as="geometry" />
        </mxCell>
        <mxCell id="tI3xh8Z578h0PM8hBI4w-70" value="Matriela" style="swimlane;fontStyle=0;childLayout=stackLayout;horizontal=1;startSize=26;fillColor=none;horizontalStack=0;resizeParent=1;resizeParentMax=0;resizeLast=0;collapsible=1;marginBottom=0;whiteSpace=wrap;html=1;" parent="WIyWlLk6GJQsqaUBKTNV-1" vertex="1">
          <mxGeometry x="-764" y="-155" width="140" height="140" as="geometry" />
        </mxCell>
        <mxCell id="tI3xh8Z578h0PM8hBI4w-71" value="- materialID: int" style="text;strokeColor=none;fillColor=none;align=left;verticalAlign=top;spacingLeft=4;spacingRight=4;overflow=hidden;rotatable=0;points=[[0,0.5],[1,0.5]];portConstraint=eastwest;whiteSpace=wrap;html=1;" parent="tI3xh8Z578h0PM8hBI4w-70" vertex="1">
          <mxGeometry y="26" width="140" height="26" as="geometry" />
        </mxCell>
        <mxCell id="tI3xh8Z578h0PM8hBI4w-72" value="- title: string" style="text;strokeColor=none;fillColor=none;align=left;verticalAlign=top;spacingLeft=4;spacingRight=4;overflow=hidden;rotatable=0;points=[[0,0.5],[1,0.5]];portConstraint=eastwest;whiteSpace=wrap;html=1;" parent="tI3xh8Z578h0PM8hBI4w-70" vertex="1">
          <mxGeometry y="52" width="140" height="26" as="geometry" />
        </mxCell>
        <mxCell id="tI3xh8Z578h0PM8hBI4w-73" value="- description: string" style="text;strokeColor=none;fillColor=none;align=left;verticalAlign=top;spacingLeft=4;spacingRight=4;overflow=hidden;rotatable=0;points=[[0,0.5],[1,0.5]];portConstraint=eastwest;whiteSpace=wrap;html=1;" parent="tI3xh8Z578h0PM8hBI4w-70" vertex="1">
          <mxGeometry y="78" width="140" height="32" as="geometry" />
        </mxCell>
        <mxCell id="tI3xh8Z578h0PM8hBI4w-74" value=" - type: MaterialType" style="text;strokeColor=none;fillColor=none;align=left;verticalAlign=top;spacingLeft=4;spacingRight=4;overflow=hidden;rotatable=0;points=[[0,0.5],[1,0.5]];portConstraint=eastwest;whiteSpace=wrap;html=1;" parent="tI3xh8Z578h0PM8hBI4w-70" vertex="1">
          <mxGeometry y="110" width="140" height="30" as="geometry" />
        </mxCell>
        <mxCell id="tI3xh8Z578h0PM8hBI4w-75" value="&lt;h3 style=&quot;margin:0px;margin-top:4px;text-align:center;&quot;&gt;&lt;i&gt;session&lt;/i&gt;&lt;/h3&gt;&lt;hr size=&quot;1&quot;&gt;&lt;p style=&quot;margin:0px;margin-left:4px;&quot;&gt;- videoID: int&lt;/p&gt;&lt;p style=&quot;margin:0px;margin-left:4px;&quot;&gt;&amp;nbsp;-title: string&lt;/p&gt;&lt;p style=&quot;margin:0px;margin-left:4px;&quot;&gt;&amp;nbsp;- description: string&lt;/p&gt;&lt;p style=&quot;margin:0px;margin-left:4px;&quot;&gt;- duration: int&lt;br&gt;&lt;/p&gt;&lt;hr size=&quot;1&quot;&gt; +play(): void&amp;nbsp;&lt;br&gt;+pause(): void&amp;nbsp;&lt;br&gt;+seek(time: int): void&lt;p style=&quot;margin:0px;margin-left:4px;&quot;&gt;&lt;br&gt;&lt;/p&gt;" style="verticalAlign=top;align=left;overflow=fill;fontSize=12;fontFamily=Helvetica;html=1;whiteSpace=wrap;" parent="WIyWlLk6GJQsqaUBKTNV-1" vertex="1">
          <mxGeometry x="-1161" y="-153" width="190" height="160" as="geometry" />
        </mxCell>
        <mxCell id="tI3xh8Z578h0PM8hBI4w-85" value="Assignment" style="swimlane;fontStyle=0;childLayout=stackLayout;horizontal=1;startSize=26;fillColor=none;horizontalStack=0;resizeParent=1;resizeParentMax=0;resizeLast=0;collapsible=1;marginBottom=0;whiteSpace=wrap;html=1;" parent="WIyWlLk6GJQsqaUBKTNV-1" vertex="1">
          <mxGeometry x="-942" y="-155" width="160" height="152" as="geometry" />
        </mxCell>
        <mxCell id="tI3xh8Z578h0PM8hBI4w-86" value="- assignmentID: int " style="text;strokeColor=none;fillColor=none;align=left;verticalAlign=top;spacingLeft=4;spacingRight=4;overflow=hidden;rotatable=0;points=[[0,0.5],[1,0.5]];portConstraint=eastwest;whiteSpace=wrap;html=1;" parent="tI3xh8Z578h0PM8hBI4w-85" vertex="1">
          <mxGeometry y="26" width="160" height="26" as="geometry" />
        </mxCell>
        <mxCell id="tI3xh8Z578h0PM8hBI4w-87" value="- assignmentTitle: string" style="text;strokeColor=none;fillColor=none;align=left;verticalAlign=top;spacingLeft=4;spacingRight=4;overflow=hidden;rotatable=0;points=[[0,0.5],[1,0.5]];portConstraint=eastwest;whiteSpace=wrap;html=1;" parent="tI3xh8Z578h0PM8hBI4w-85" vertex="1">
          <mxGeometry y="52" width="160" height="26" as="geometry" />
        </mxCell>
        <mxCell id="tI3xh8Z578h0PM8hBI4w-88" value=" - module: Module" style="text;strokeColor=none;fillColor=none;align=left;verticalAlign=top;spacingLeft=4;spacingRight=4;overflow=hidden;rotatable=0;points=[[0,0.5],[1,0.5]];portConstraint=eastwest;whiteSpace=wrap;html=1;" parent="tI3xh8Z578h0PM8hBI4w-85" vertex="1">
          <mxGeometry y="78" width="160" height="22" as="geometry" />
        </mxCell>
        <mxCell id="tI3xh8Z578h0PM8hBI4w-89" value="- dueDate: Date" style="text;strokeColor=none;fillColor=none;align=left;verticalAlign=top;spacingLeft=4;spacingRight=4;overflow=hidden;rotatable=0;points=[[0,0.5],[1,0.5]];portConstraint=eastwest;whiteSpace=wrap;html=1;" parent="tI3xh8Z578h0PM8hBI4w-85" vertex="1">
          <mxGeometry y="100" width="160" height="26" as="geometry" />
        </mxCell>
        <mxCell id="tI3xh8Z578h0PM8hBI4w-90" value="- points: int " style="text;strokeColor=none;fillColor=none;align=left;verticalAlign=top;spacingLeft=4;spacingRight=4;overflow=hidden;rotatable=0;points=[[0,0.5],[1,0.5]];portConstraint=eastwest;whiteSpace=wrap;html=1;" parent="tI3xh8Z578h0PM8hBI4w-85" vertex="1">
          <mxGeometry y="126" width="160" height="26" as="geometry" />
        </mxCell>
        <mxCell id="tI3xh8Z578h0PM8hBI4w-98" value="&lt;p style=&quot;margin:0px;margin-top:4px;text-align:center;&quot;&gt;&lt;i&gt;Schedule&lt;/i&gt;&lt;/p&gt;&lt;hr size=&quot;1&quot;&gt;&lt;p style=&quot;margin:0px;margin-left:4px;&quot;&gt;- Schedule:List&amp;lt;Schedule&amp;gt;&lt;br&gt;&lt;/p&gt;&lt;hr size=&quot;1&quot;&gt;&lt;p style=&quot;margin:0px;margin-left:4px;&quot;&gt;+ Create Schedule()&lt;br&gt;+ Update Schedule()&lt;/p&gt;&lt;p style=&quot;margin:0px;margin-left:4px;&quot;&gt;+ View Schedule()&lt;/p&gt;" style="verticalAlign=top;align=left;overflow=fill;fontSize=12;fontFamily=Helvetica;html=1;whiteSpace=wrap;" parent="WIyWlLk6GJQsqaUBKTNV-1" vertex="1">
          <mxGeometry x="-933" y="-534" width="190" height="110" as="geometry" />
        </mxCell>
        <mxCell id="tI3xh8Z578h0PM8hBI4w-100" style="edgeStyle=orthogonalEdgeStyle;rounded=0;orthogonalLoop=1;jettySize=auto;html=1;exitX=0.5;exitY=1;exitDx=0;exitDy=0;" parent="WIyWlLk6GJQsqaUBKTNV-1" source="tI3xh8Z578h0PM8hBI4w-98" target="tI3xh8Z578h0PM8hBI4w-98" edge="1">
          <mxGeometry relative="1" as="geometry" />
        </mxCell>
        <mxCell id="0-J2Bm-WV9Q-Gzg6j7fX-8" style="edgeStyle=orthogonalEdgeStyle;rounded=0;orthogonalLoop=1;jettySize=auto;html=1;exitX=1;exitY=0.75;exitDx=0;exitDy=0;" parent="WIyWlLk6GJQsqaUBKTNV-1" source="tI3xh8Z578h0PM8hBI4w-42" target="tI3xh8Z578h0PM8hBI4w-115" edge="1">
          <mxGeometry relative="1" as="geometry">
            <Array as="points">
              <mxPoint x="20" y="-655" />
              <mxPoint x="20" y="-532" />
              <mxPoint x="284" y="-532" />
            </Array>
          </mxGeometry>
        </mxCell>
        <mxCell id="tI3xh8Z578h0PM8hBI4w-115" value="CommunicationSystem" style="swimlane;fontStyle=1;align=center;verticalAlign=top;childLayout=stackLayout;horizontal=1;startSize=26;horizontalStack=0;resizeParent=1;resizeParentMax=0;resizeLast=0;collapsible=1;marginBottom=0;whiteSpace=wrap;html=1;" parent="WIyWlLk6GJQsqaUBKTNV-1" vertex="1">
          <mxGeometry x="84" y="-377" width="400" height="104" as="geometry" />
        </mxCell>
        <mxCell id="tI3xh8Z578h0PM8hBI4w-116" value=" + send Message(sender: User, receiver: User, message: String): void&lt;br&gt;+ create Group Chat(users: User): void&lt;br&gt;+&amp;nbsp;upload File (fileName: String): void&lt;br&gt;+ notify User (users:User):String" style="text;strokeColor=none;fillColor=none;align=left;verticalAlign=top;spacingLeft=4;spacingRight=4;overflow=hidden;rotatable=0;points=[[0,0.5],[1,0.5]];portConstraint=eastwest;whiteSpace=wrap;html=1;" parent="tI3xh8Z578h0PM8hBI4w-115" vertex="1">
          <mxGeometry y="26" width="400" height="78" as="geometry" />
        </mxCell>
        <mxCell id="tI3xh8Z578h0PM8hBI4w-126" value="&lt;p style=&quot;margin:0px;margin-top:4px;text-align:center;&quot;&gt;&lt;i&gt;About Page&lt;/i&gt;&lt;/p&gt;&lt;hr size=&quot;1&quot;&gt;&lt;p style=&quot;margin:0px;margin-left:4px;&quot;&gt;+ Content:Strng&lt;br&gt;+ Contactinfo:String&lt;/p&gt;&lt;hr size=&quot;1&quot;&gt;&lt;p style=&quot;margin:0px;margin-left:4px;&quot;&gt;+getContactlnfo(String):void&lt;/p&gt;&lt;p style=&quot;margin:0px;margin-left:4px;&quot;&gt;+getcontent(): Stnng&lt;/p&gt;&lt;p style=&quot;margin:0px;margin-left:4px;&quot;&gt;+getcontactlnfo(): String&lt;/p&gt;&lt;p style=&quot;margin:0px;margin-left:4px;&quot;&gt;+modifycontent(String):void&lt;/p&gt;&lt;p style=&quot;margin:0px;margin-left:4px;&quot;&gt;+modifyContactlnfo(Stnng): void&lt;/p&gt;" style="verticalAlign=top;align=left;overflow=fill;fontSize=12;fontFamily=Helvetica;html=1;whiteSpace=wrap;" parent="WIyWlLk6GJQsqaUBKTNV-1" vertex="1">
          <mxGeometry x="-1198" y="-706" width="190" height="153" as="geometry" />
        </mxCell>
        <mxCell id="brUXXa_R-ptbCNzifq8O-77" style="edgeStyle=orthogonalEdgeStyle;rounded=0;orthogonalLoop=1;jettySize=auto;html=1;exitX=1;exitY=0.5;exitDx=0;exitDy=0;entryX=0;entryY=0.5;entryDx=0;entryDy=0;" parent="WIyWlLk6GJQsqaUBKTNV-1" source="tI3xh8Z578h0PM8hBI4w-128" target="tI3xh8Z578h0PM8hBI4w-50" edge="1">
          <mxGeometry relative="1" as="geometry" />
        </mxCell>
        <mxCell id="tI3xh8Z578h0PM8hBI4w-128" value="&lt;p style=&quot;margin:0px;margin-top:4px;text-align:center;&quot;&gt;&lt;i&gt;Report&lt;/i&gt;&lt;/p&gt;&lt;hr size=&quot;1&quot;&gt;&lt;p style=&quot;margin:0px;margin-left:4px;&quot;&gt;-ReportID:Int&lt;/p&gt;&lt;p style=&quot;margin:0px;margin-left:4px;&quot;&gt;- Report Details:string&lt;/p&gt;&lt;p style=&quot;margin:0px;margin-left:4px;&quot;&gt;-Report content:String&lt;/p&gt;&lt;p style=&quot;margin:0px;margin-left:4px;&quot;&gt;-Report Creator:String&lt;/p&gt;&lt;p style=&quot;margin:0px;margin-left:4px;&quot;&gt;-Report Type:String&lt;/p&gt;&lt;hr size=&quot;1&quot;&gt;&lt;p style=&quot;margin:0px;margin-left:4px;&quot;&gt;+create report():void&lt;/p&gt;&lt;p style=&quot;margin:0px;margin-left:4px;&quot;&gt;+Send by Email():void&lt;/p&gt;&lt;p style=&quot;margin:0px;margin-left:4px;&quot;&gt;+view Report():void&lt;/p&gt;&lt;p style=&quot;margin:0px;margin-left:4px;&quot;&gt;+recive Report():void&lt;/p&gt;&lt;p style=&quot;margin:0px;margin-left:4px;&quot;&gt;&lt;br&gt;&lt;/p&gt;" style="verticalAlign=top;align=left;overflow=fill;fontSize=12;fontFamily=Helvetica;html=1;whiteSpace=wrap;" parent="WIyWlLk6GJQsqaUBKTNV-1" vertex="1">
          <mxGeometry x="-975" y="-866" width="190" height="186" as="geometry" />
        </mxCell>
        <mxCell id="tI3xh8Z578h0PM8hBI4w-133" value="&lt;p style=&quot;margin:0px;margin-top:4px;text-align:center;&quot;&gt;&lt;i&gt;Feedback&lt;/i&gt;&lt;/p&gt;&lt;p style=&quot;margin:0px;margin-left:4px;&quot;&gt;&lt;br&gt;&lt;/p&gt;&lt;p style=&quot;margin: 0px 0px 0px 4px;&quot;&gt;-feedbackID:Int&lt;/p&gt;&lt;p style=&quot;margin: 0px 0px 0px 4px;&quot;&gt;-Feedback content:String&lt;/p&gt;&lt;p style=&quot;margin: 0px 0px 0px 4px;&quot;&gt;-Feedback Type:String&lt;/p&gt;&lt;p style=&quot;margin: 0px 0px 0px 4px;&quot;&gt;-feedback rating:Int&lt;/p&gt;&lt;hr size=&quot;1&quot;&gt;&lt;p style=&quot;margin: 0px 0px 0px 4px;&quot;&gt;+create Feedback():void&lt;/p&gt;&lt;p style=&quot;margin: 0px 0px 0px 4px;&quot;&gt;+Send by Email():void&lt;/p&gt;&lt;p style=&quot;margin: 0px 0px 0px 4px;&quot;&gt;+view feedback():void&lt;/p&gt;&lt;p style=&quot;margin: 0px 0px 0px 4px;&quot;&gt;+recive Feedback():void&lt;/p&gt;&lt;p style=&quot;margin: 0px 0px 0px 4px;&quot;&gt;+generate report()&lt;/p&gt;" style="verticalAlign=top;align=left;overflow=fill;fontSize=12;fontFamily=Helvetica;html=1;whiteSpace=wrap;" parent="WIyWlLk6GJQsqaUBKTNV-1" vertex="1">
          <mxGeometry x="-934" y="-1148" width="190" height="185" as="geometry" />
        </mxCell>
        <mxCell id="brUXXa_R-ptbCNzifq8O-3" value="" style="endArrow=block;endSize=16;endFill=0;html=1;rounded=0;entryX=0.51;entryY=0.974;entryDx=0;entryDy=0;entryPerimeter=0;exitX=0.434;exitY=0.4;exitDx=0;exitDy=0;exitPerimeter=0;" parent="WIyWlLk6GJQsqaUBKTNV-1" source="brUXXa_R-ptbCNzifq8O-4" target="tI3xh8Z578h0PM8hBI4w-16" edge="1">
          <mxGeometry width="160" relative="1" as="geometry">
            <mxPoint x="-131.76999999999998" y="-675" as="sourcePoint" />
            <mxPoint x="-308.9991666666665" y="-910" as="targetPoint" />
          </mxGeometry>
        </mxCell>
        <mxCell id="brUXXa_R-ptbCNzifq8O-4" value="" style="line;strokeWidth=1;rotatable=0;dashed=0;labelPosition=right;align=left;verticalAlign=middle;spacingTop=0;spacingLeft=6;points=[];portConstraint=eastwest;" parent="WIyWlLk6GJQsqaUBKTNV-1" vertex="1">
          <mxGeometry x="-414" y="-815" width="277" height="10" as="geometry" />
        </mxCell>
        <mxCell id="brUXXa_R-ptbCNzifq8O-7" value="" style="line;strokeWidth=2;direction=south;html=1;" parent="WIyWlLk6GJQsqaUBKTNV-1" vertex="1">
          <mxGeometry x="-419" y="-811" width="10" height="75" as="geometry" />
        </mxCell>
        <mxCell id="brUXXa_R-ptbCNzifq8O-8" value="" style="line;strokeWidth=2;direction=south;html=1;" parent="WIyWlLk6GJQsqaUBKTNV-1" vertex="1">
          <mxGeometry x="-141" y="-811" width="10" height="75" as="geometry" />
        </mxCell>
        <mxCell id="brUXXa_R-ptbCNzifq8O-10" style="edgeStyle=orthogonalEdgeStyle;rounded=0;orthogonalLoop=1;jettySize=auto;html=1;exitX=0;exitY=0.5;exitDx=0;exitDy=0;entryX=1.029;entryY=0.202;entryDx=0;entryDy=0;entryPerimeter=0;" parent="WIyWlLk6GJQsqaUBKTNV-1" source="tI3xh8Z578h0PM8hBI4w-4" target="tI3xh8Z578h0PM8hBI4w-21" edge="1">
          <mxGeometry relative="1" as="geometry" />
        </mxCell>
        <mxCell id="brUXXa_R-ptbCNzifq8O-11" value="1" style="text;html=1;align=center;verticalAlign=middle;resizable=0;points=[];autosize=1;strokeColor=none;fillColor=none;fontStyle=1;fontSize=15;" parent="WIyWlLk6GJQsqaUBKTNV-1" vertex="1">
          <mxGeometry x="-532" y="-1125" width="26" height="30" as="geometry" />
        </mxCell>
        <mxCell id="brUXXa_R-ptbCNzifq8O-12" value="1" style="text;html=1;align=center;verticalAlign=middle;resizable=0;points=[];autosize=1;strokeColor=none;fillColor=none;fontStyle=1;fontSize=15;" parent="WIyWlLk6GJQsqaUBKTNV-1" vertex="1">
          <mxGeometry x="-442" y="-1093" width="26" height="30" as="geometry" />
        </mxCell>
        <mxCell id="brUXXa_R-ptbCNzifq8O-13" value="" style="line;strokeWidth=1;rotatable=0;dashed=0;labelPosition=right;align=left;verticalAlign=middle;spacingTop=0;spacingLeft=6;points=[];portConstraint=eastwest;" parent="WIyWlLk6GJQsqaUBKTNV-1" vertex="1">
          <mxGeometry x="-1046" y="-225" width="527" height="10" as="geometry" />
        </mxCell>
        <mxCell id="brUXXa_R-ptbCNzifq8O-14" value="" style="line;strokeWidth=2;direction=south;html=1;" parent="WIyWlLk6GJQsqaUBKTNV-1" vertex="1">
          <mxGeometry x="-525" y="-220" width="10" height="54" as="geometry" />
        </mxCell>
        <mxCell id="brUXXa_R-ptbCNzifq8O-37" value="1" style="text;html=1;align=center;verticalAlign=middle;resizable=0;points=[];autosize=1;strokeColor=none;fillColor=none;fontStyle=1;fontSize=15;" parent="WIyWlLk6GJQsqaUBKTNV-1" vertex="1">
          <mxGeometry x="-646" y="-280" width="26" height="30" as="geometry" />
        </mxCell>
        <mxCell id="brUXXa_R-ptbCNzifq8O-38" value="*" style="text;html=1;align=center;verticalAlign=middle;resizable=0;points=[];autosize=1;strokeColor=none;fillColor=none;fontStyle=1;fontSize=21;" parent="WIyWlLk6GJQsqaUBKTNV-1" vertex="1">
          <mxGeometry x="-617" y="-243" width="26" height="37" as="geometry" />
        </mxCell>
        <mxCell id="brUXXa_R-ptbCNzifq8O-42" style="edgeStyle=orthogonalEdgeStyle;rounded=0;orthogonalLoop=1;jettySize=auto;html=1;exitX=0;exitY=0.5;exitDx=0;exitDy=0;entryX=1.005;entryY=0.296;entryDx=0;entryDy=0;entryPerimeter=0;" parent="WIyWlLk6GJQsqaUBKTNV-1" source="qo8mv6PclGXcHzkk8HT5-20" target="qo8mv6PclGXcHzkk8HT5-27" edge="1">
          <mxGeometry relative="1" as="geometry" />
        </mxCell>
        <mxCell id="brUXXa_R-ptbCNzifq8O-43" value="1" style="text;html=1;align=center;verticalAlign=middle;resizable=0;points=[];autosize=1;strokeColor=none;fillColor=none;fontStyle=1;fontSize=15;" parent="WIyWlLk6GJQsqaUBKTNV-1" vertex="1">
          <mxGeometry x="-442" y="-456" width="26" height="30" as="geometry" />
        </mxCell>
        <mxCell id="brUXXa_R-ptbCNzifq8O-44" value="*" style="text;html=1;align=center;verticalAlign=middle;resizable=0;points=[];autosize=1;strokeColor=none;fillColor=none;fontStyle=1;fontSize=21;" parent="WIyWlLk6GJQsqaUBKTNV-1" vertex="1">
          <mxGeometry x="-526" y="-429" width="26" height="37" as="geometry" />
        </mxCell>
        <mxCell id="brUXXa_R-ptbCNzifq8O-46" style="edgeStyle=orthogonalEdgeStyle;rounded=0;orthogonalLoop=1;jettySize=auto;html=1;exitX=1;exitY=0.5;exitDx=0;exitDy=0;" parent="WIyWlLk6GJQsqaUBKTNV-1" source="qo8mv6PclGXcHzkk8HT5-23" target="tI3xh8Z578h0PM8hBI4w-42" edge="1">
          <mxGeometry relative="1" as="geometry" />
        </mxCell>
        <mxCell id="brUXXa_R-ptbCNzifq8O-47" value="*" style="text;html=1;align=center;verticalAlign=middle;resizable=0;points=[];autosize=1;strokeColor=none;fillColor=none;fontStyle=1;fontSize=21;" parent="WIyWlLk6GJQsqaUBKTNV-1" vertex="1">
          <mxGeometry x="-164" y="-630" width="26" height="37" as="geometry" />
        </mxCell>
        <mxCell id="brUXXa_R-ptbCNzifq8O-48" value="*" style="text;html=1;align=center;verticalAlign=middle;resizable=0;points=[];autosize=1;strokeColor=none;fillColor=none;fontStyle=1;fontSize=21;" parent="WIyWlLk6GJQsqaUBKTNV-1" vertex="1">
          <mxGeometry x="-226" y="-482" width="26" height="37" as="geometry" />
        </mxCell>
        <mxCell id="brUXXa_R-ptbCNzifq8O-49" value="1" style="text;html=1;align=center;verticalAlign=middle;resizable=0;points=[];autosize=1;strokeColor=none;fillColor=none;fontStyle=1;fontSize=15;" parent="WIyWlLk6GJQsqaUBKTNV-1" vertex="1">
          <mxGeometry x="-401" y="-634" width="26" height="30" as="geometry" />
        </mxCell>
        <mxCell id="brUXXa_R-ptbCNzifq8O-50" value="*" style="text;html=1;align=center;verticalAlign=middle;resizable=0;points=[];autosize=1;strokeColor=none;fillColor=none;fontStyle=1;fontSize=21;" parent="WIyWlLk6GJQsqaUBKTNV-1" vertex="1">
          <mxGeometry x="-367" y="-596" width="26" height="37" as="geometry" />
        </mxCell>
        <mxCell id="brUXXa_R-ptbCNzifq8O-51" style="edgeStyle=orthogonalEdgeStyle;rounded=0;orthogonalLoop=1;jettySize=auto;html=1;entryX=0.647;entryY=1.03;entryDx=0;entryDy=0;entryPerimeter=0;" parent="WIyWlLk6GJQsqaUBKTNV-1" target="tI3xh8Z578h0PM8hBI4w-42" edge="1">
          <mxGeometry relative="1" as="geometry">
            <Array as="points">
              <mxPoint x="-433" y="-70" />
              <mxPoint x="-110" y="-70" />
            </Array>
            <mxPoint x="-433" y="-71" as="sourcePoint" />
          </mxGeometry>
        </mxCell>
        <mxCell id="brUXXa_R-ptbCNzifq8O-54" value="*" style="text;html=1;align=center;verticalAlign=middle;resizable=0;points=[];autosize=1;strokeColor=none;fillColor=none;fontStyle=1;fontSize=21;" parent="WIyWlLk6GJQsqaUBKTNV-1" vertex="1">
          <mxGeometry x="-492" y="-628" width="26" height="37" as="geometry" />
        </mxCell>
        <mxCell id="brUXXa_R-ptbCNzifq8O-55" value="*" style="text;html=1;align=center;verticalAlign=middle;resizable=0;points=[];autosize=1;strokeColor=none;fillColor=none;fontStyle=1;fontSize=21;" parent="WIyWlLk6GJQsqaUBKTNV-1" vertex="1">
          <mxGeometry x="-464" y="-192" width="26" height="37" as="geometry" />
        </mxCell>
        <mxCell id="brUXXa_R-ptbCNzifq8O-56" value="*" style="text;html=1;align=center;verticalAlign=middle;resizable=0;points=[];autosize=1;strokeColor=none;fillColor=none;fontStyle=1;fontSize=21;" parent="WIyWlLk6GJQsqaUBKTNV-1" vertex="1">
          <mxGeometry x="-424" y="-106" width="26" height="37" as="geometry" />
        </mxCell>
        <mxCell id="brUXXa_R-ptbCNzifq8O-57" value="*" style="text;html=1;align=center;verticalAlign=middle;resizable=0;points=[];autosize=1;strokeColor=none;fillColor=none;fontStyle=1;fontSize=21;" parent="WIyWlLk6GJQsqaUBKTNV-1" vertex="1">
          <mxGeometry x="-106" y="-623" width="26" height="37" as="geometry" />
        </mxCell>
        <mxCell id="brUXXa_R-ptbCNzifq8O-63" value="" style="endArrow=open;endSize=12;dashed=1;html=1;rounded=0;exitX=1.003;exitY=0.193;exitDx=0;exitDy=0;exitPerimeter=0;entryX=-0.016;entryY=0.038;entryDx=0;entryDy=0;entryPerimeter=0;" parent="WIyWlLk6GJQsqaUBKTNV-1" source="tI3xh8Z578h0PM8hBI4w-98" target="qo8mv6PclGXcHzkk8HT5-22" edge="1">
          <mxGeometry width="160" relative="1" as="geometry">
            <mxPoint x="-740" y="-509" as="sourcePoint" />
            <mxPoint x="-481" y="-512" as="targetPoint" />
          </mxGeometry>
        </mxCell>
        <mxCell id="brUXXa_R-ptbCNzifq8O-66" value="1" style="text;html=1;align=center;verticalAlign=middle;resizable=0;points=[];autosize=1;strokeColor=none;fillColor=none;fontStyle=1;fontSize=15;" parent="WIyWlLk6GJQsqaUBKTNV-1" vertex="1">
          <mxGeometry x="-862" y="-564" width="26" height="30" as="geometry" />
        </mxCell>
        <mxCell id="brUXXa_R-ptbCNzifq8O-67" value="1" style="text;html=1;align=center;verticalAlign=middle;resizable=0;points=[];autosize=1;strokeColor=none;fillColor=none;fontStyle=1;fontSize=15;" parent="WIyWlLk6GJQsqaUBKTNV-1" vertex="1">
          <mxGeometry x="-742" y="-545" width="26" height="30" as="geometry" />
        </mxCell>
        <mxCell id="brUXXa_R-ptbCNzifq8O-68" value="1" style="text;html=1;align=center;verticalAlign=middle;resizable=0;points=[];autosize=1;strokeColor=none;fillColor=none;fontStyle=1;fontSize=15;" parent="WIyWlLk6GJQsqaUBKTNV-1" vertex="1">
          <mxGeometry x="-450" y="-552" width="26" height="30" as="geometry" />
        </mxCell>
        <mxCell id="brUXXa_R-ptbCNzifq8O-70" style="edgeStyle=orthogonalEdgeStyle;rounded=0;orthogonalLoop=1;jettySize=auto;html=1;exitX=0.515;exitY=0;exitDx=0;exitDy=0;entryX=0.92;entryY=0.596;entryDx=0;entryDy=0;entryPerimeter=0;exitPerimeter=0;" parent="WIyWlLk6GJQsqaUBKTNV-1" source="tI3xh8Z578h0PM8hBI4w-98" edge="1">
          <mxGeometry relative="1" as="geometry">
            <mxPoint x="-835.9999999999999" y="-525.1859999999999" as="sourcePoint" />
            <mxPoint x="-503.9199999999998" y="-642.9839999999999" as="targetPoint" />
            <Array as="points">
              <mxPoint x="-835" y="-643" />
            </Array>
          </mxGeometry>
        </mxCell>
        <mxCell id="brUXXa_R-ptbCNzifq8O-71" value="1" style="text;html=1;align=center;verticalAlign=middle;resizable=0;points=[];autosize=1;strokeColor=none;fillColor=none;fontStyle=1;fontSize=15;" parent="WIyWlLk6GJQsqaUBKTNV-1" vertex="1">
          <mxGeometry x="-534" y="-680" width="26" height="30" as="geometry" />
        </mxCell>
        <mxCell id="brUXXa_R-ptbCNzifq8O-79" value="&lt;b&gt;&lt;font style=&quot;font-size: 22px;&quot;&gt;*&lt;/font&gt;&lt;/b&gt;" style="text;html=1;align=center;verticalAlign=middle;resizable=0;points=[];autosize=1;strokeColor=none;fillColor=none;" parent="WIyWlLk6GJQsqaUBKTNV-1" vertex="1">
          <mxGeometry x="-660" y="-941" width="27" height="38" as="geometry" />
        </mxCell>
        <mxCell id="brUXXa_R-ptbCNzifq8O-80" value="*" style="text;html=1;align=center;verticalAlign=middle;resizable=0;points=[];autosize=1;strokeColor=none;fillColor=none;fontStyle=1;fontSize=22;" parent="WIyWlLk6GJQsqaUBKTNV-1" vertex="1">
          <mxGeometry x="-788" y="-799" width="27" height="38" as="geometry" />
        </mxCell>
        <mxCell id="brUXXa_R-ptbCNzifq8O-82" value="" style="edgeStyle=entityRelationEdgeStyle;fontSize=12;html=1;endArrow=ERzeroToMany;endFill=1;rounded=0;exitX=0.25;exitY=0;exitDx=0;exitDy=0;" parent="WIyWlLk6GJQsqaUBKTNV-1" source="tI3xh8Z578h0PM8hBI4w-128" edge="1">
          <mxGeometry width="100" height="100" relative="1" as="geometry">
            <mxPoint x="-994" y="-891" as="sourcePoint" />
            <mxPoint x="-934" y="-980" as="targetPoint" />
            <Array as="points">
              <mxPoint x="-916" y="-870" />
              <mxPoint x="-972" y="-925" />
              <mxPoint x="-934" y="-900" />
              <mxPoint x="-943" y="-909" />
              <mxPoint x="-968" y="-911" />
              <mxPoint x="-912" y="-914" />
              <mxPoint x="-932" y="-903" />
              <mxPoint x="-962" y="-908" />
              <mxPoint x="-1011" y="-873" />
              <mxPoint x="-992" y="-914" />
              <mxPoint x="-983" y="-914" />
              <mxPoint x="-992" y="-927" />
              <mxPoint x="-983" y="-951" />
              <mxPoint x="-976" y="-866" />
              <mxPoint x="-1007" y="-884" />
            </Array>
          </mxGeometry>
        </mxCell>
        <mxCell id="0-J2Bm-WV9Q-Gzg6j7fX-2" value="1" style="text;html=1;align=center;verticalAlign=middle;resizable=0;points=[];autosize=1;strokeColor=none;fillColor=none;" parent="WIyWlLk6GJQsqaUBKTNV-1" vertex="1">
          <mxGeometry x="-41" y="-709" width="25" height="26" as="geometry" />
        </mxCell>
        <mxCell id="0-J2Bm-WV9Q-Gzg6j7fX-3" value="&lt;b&gt;&lt;font style=&quot;font-size: 24px;&quot;&gt;*&lt;/font&gt;&lt;/b&gt;" style="text;html=1;align=center;verticalAlign=middle;resizable=0;points=[];autosize=1;strokeColor=none;fillColor=none;" parent="WIyWlLk6GJQsqaUBKTNV-1" vertex="1">
          <mxGeometry x="53" y="-803" width="27" height="41" as="geometry" />
        </mxCell>
        <mxCell id="0-J2Bm-WV9Q-Gzg6j7fX-4" style="edgeStyle=orthogonalEdgeStyle;rounded=0;orthogonalLoop=1;jettySize=auto;html=1;" parent="WIyWlLk6GJQsqaUBKTNV-1" source="qo8mv6PclGXcHzkk8HT5-24" target="tI3xh8Z578h0PM8hBI4w-39" edge="1">
          <mxGeometry relative="1" as="geometry">
            <Array as="points">
              <mxPoint x="149" y="-422" />
            </Array>
          </mxGeometry>
        </mxCell>
        <mxCell id="0-J2Bm-WV9Q-Gzg6j7fX-5" value="1" style="text;html=1;align=center;verticalAlign=middle;resizable=0;points=[];autosize=1;strokeColor=none;fillColor=none;" parent="WIyWlLk6GJQsqaUBKTNV-1" vertex="1">
          <mxGeometry x="-230" y="-415" width="25" height="26" as="geometry" />
        </mxCell>
        <mxCell id="0-J2Bm-WV9Q-Gzg6j7fX-6" value="1" style="text;html=1;align=center;verticalAlign=middle;resizable=0;points=[];autosize=1;strokeColor=none;fillColor=none;" parent="WIyWlLk6GJQsqaUBKTNV-1" vertex="1">
          <mxGeometry x="118" y="-795" width="25" height="26" as="geometry" />
        </mxCell>
        <mxCell id="0-J2Bm-WV9Q-Gzg6j7fX-10" value="" style="line;strokeWidth=2;direction=south;html=1;" parent="WIyWlLk6GJQsqaUBKTNV-1" vertex="1">
          <mxGeometry x="-698" y="-220" width="10" height="65" as="geometry" />
        </mxCell>
        <mxCell id="0-J2Bm-WV9Q-Gzg6j7fX-11" value="" style="line;strokeWidth=2;direction=south;html=1;" parent="WIyWlLk6GJQsqaUBKTNV-1" vertex="1">
          <mxGeometry x="-834" y="-220" width="10" height="65" as="geometry" />
        </mxCell>
        <mxCell id="0-J2Bm-WV9Q-Gzg6j7fX-12" value="" style="line;strokeWidth=2;direction=south;html=1;" parent="WIyWlLk6GJQsqaUBKTNV-1" vertex="1">
          <mxGeometry x="-1051" y="-220" width="10" height="67" as="geometry" />
        </mxCell>
        <mxCell id="0-J2Bm-WV9Q-Gzg6j7fX-15" value="- assignmentID: int " style="text;strokeColor=none;fillColor=none;align=left;verticalAlign=top;spacingLeft=4;spacingRight=4;overflow=hidden;rotatable=0;points=[[0,0.5],[1,0.5]];portConstraint=eastwest;whiteSpace=wrap;html=1;" parent="WIyWlLk6GJQsqaUBKTNV-1" vertex="1">
          <mxGeometry x="-942" y="-129" width="160" height="26" as="geometry" />
        </mxCell>
        <mxCell id="0-J2Bm-WV9Q-Gzg6j7fX-20" value="" style="endArrow=diamondThin;endFill=0;endSize=24;html=1;rounded=0;exitX=0.083;exitY=0.63;exitDx=0;exitDy=0;exitPerimeter=0;" parent="WIyWlLk6GJQsqaUBKTNV-1" source="brUXXa_R-ptbCNzifq8O-38" edge="1">
          <mxGeometry width="160" relative="1" as="geometry">
            <mxPoint x="-615" y="-221" as="sourcePoint" />
            <mxPoint x="-615" y="-276" as="targetPoint" />
          </mxGeometry>
        </mxCell>
        <mxCell id="nh0gt3Vq33AYIjJ5IJQL-12" value="&lt;p style=&quot;margin:0px;margin-top:4px;text-align:center;&quot;&gt;&lt;i&gt;&amp;lt;&amp;lt;Interface&amp;gt;&amp;gt;&lt;/i&gt;&lt;br&gt;&lt;b&gt;debit / credit card&lt;/b&gt;&lt;/p&gt;&lt;hr size=&quot;1&quot;&gt;&lt;p style=&quot;margin:0px;margin-left:4px;&quot;&gt;-card name&amp;nbsp;&lt;br&gt;-card number&lt;/p&gt;&lt;p style=&quot;margin:0px;margin-left:4px;&quot;&gt;-CVV&lt;span style=&quot;white-space: pre;&quot;&gt;&#x9;&lt;/span&gt;&lt;/p&gt;&lt;p style=&quot;margin:0px;margin-left:4px;&quot;&gt;-name another card&lt;/p&gt;&lt;hr size=&quot;1&quot;&gt;&lt;p style=&quot;margin:0px;margin-left:4px;&quot;&gt;&lt;span style=&quot;background-color: initial;&quot;&gt;+invalid card states()&lt;/span&gt;&lt;/p&gt;&lt;p style=&quot;margin:0px;margin-left:4px;&quot;&gt;+update()&lt;/p&gt;&lt;p style=&quot;margin:0px;margin-left:4px;&quot;&gt;&lt;br&gt;&lt;/p&gt;" style="verticalAlign=top;align=left;overflow=fill;fontSize=12;fontFamily=Helvetica;html=1;whiteSpace=wrap;" vertex="1" parent="WIyWlLk6GJQsqaUBKTNV-1">
          <mxGeometry x="369" y="-1030" width="190" height="168" as="geometry" />
        </mxCell>
        <mxCell id="nh0gt3Vq33AYIjJ5IJQL-13" value="&lt;p style=&quot;margin:0px;margin-top:4px;text-align:center;&quot;&gt;&lt;i&gt;&amp;lt;&amp;lt;Interface&amp;gt;&amp;gt;&lt;/i&gt;&lt;/p&gt;&lt;p style=&quot;margin:0px;margin-top:4px;text-align:center;&quot;&gt;&lt;i&gt;&lt;b&gt;electronic wallet&lt;/b&gt;&lt;/i&gt;&lt;br&gt;&lt;/p&gt;&lt;p style=&quot;margin:0px;margin-top:4px;text-align:center;&quot;&gt;&lt;i&gt;&lt;b&gt;&lt;br&gt;&lt;/b&gt;&lt;/i&gt;&lt;/p&gt;&lt;p style=&quot;margin:0px;margin-left:4px;&quot;&gt;-phone number&amp;nbsp;&lt;br&gt;-wallet password&lt;/p&gt;&lt;p style=&quot;margin:0px;margin-left:4px;&quot;&gt;-verify message&amp;nbsp;&lt;/p&gt;&lt;hr size=&quot;1&quot;&gt;&lt;p style=&quot;margin:0px;margin-left:4px;&quot;&gt;&lt;span style=&quot;background-color: initial;&quot;&gt;+invalid wallet states()&lt;/span&gt;&lt;/p&gt;&lt;p style=&quot;margin:0px;margin-left:4px;&quot;&gt;&lt;br&gt;&lt;/p&gt;&lt;p style=&quot;margin:0px;margin-left:4px;&quot;&gt;&lt;br&gt;&lt;/p&gt;" style="verticalAlign=top;align=left;overflow=fill;fontSize=12;fontFamily=Helvetica;html=1;whiteSpace=wrap;" vertex="1" parent="WIyWlLk6GJQsqaUBKTNV-1">
          <mxGeometry x="365" y="-825" width="190" height="133" as="geometry" />
        </mxCell>
        <mxCell id="nh0gt3Vq33AYIjJ5IJQL-14" value="" style="line;strokeWidth=1;fillColor=none;align=left;verticalAlign=middle;spacingTop=-1;spacingLeft=3;spacingRight=3;rotatable=0;labelPosition=right;points=[];portConstraint=eastwest;strokeColor=inherit;" vertex="1" parent="WIyWlLk6GJQsqaUBKTNV-1">
          <mxGeometry x="366" y="-787" width="193" height="8" as="geometry" />
        </mxCell>
        <mxCell id="nh0gt3Vq33AYIjJ5IJQL-15" value="" style="endArrow=block;dashed=1;endFill=0;endSize=12;html=1;rounded=0;entryX=0;entryY=0.5;entryDx=0;entryDy=0;exitX=0.5;exitY=1;exitDx=0;exitDy=0;" edge="1" parent="WIyWlLk6GJQsqaUBKTNV-1" target="nh0gt3Vq33AYIjJ5IJQL-13">
          <mxGeometry width="160" relative="1" as="geometry">
            <mxPoint x="173" y="-798" as="sourcePoint" />
            <mxPoint x="113" y="-744" as="targetPoint" />
            <Array as="points">
              <mxPoint x="173" y="-758" />
            </Array>
          </mxGeometry>
        </mxCell>
        <mxCell id="nh0gt3Vq33AYIjJ5IJQL-16" value="" style="endArrow=block;dashed=1;endFill=0;endSize=12;html=1;rounded=0;exitX=1.019;exitY=0.355;exitDx=0;exitDy=0;exitPerimeter=0;" edge="1" parent="WIyWlLk6GJQsqaUBKTNV-1" source="tI3xh8Z578h0PM8hBI4w-39">
          <mxGeometry width="160" relative="1" as="geometry">
            <mxPoint x="266" y="-914" as="sourcePoint" />
            <mxPoint x="369.9000000000001" y="-914.1120000000001" as="targetPoint" />
          </mxGeometry>
        </mxCell>
      </root>
    </mxGraphModel>
  </diagram>
</mxfile>
